<?xml version="1.0" encoding="UTF-8" ?>
<!DOCTYPE svg PUBLIC "-//W3C//DTD SVG 1.1//EN" "http://www.w3.org/Graphics/SVG/1.1/DTD/svg11.dtd">
<svg width="805pt" height="976pt" viewBox="0 0 805 976" version="1.1" xmlns="http://www.w3.org/2000/svg">
<g id="#9aeca3ff">
<path fill="#9aeca3" opacity="1.00" d=" M 348.90 0.32 C 415.94 0.41 482.98 0.13 550.02 0.47 C 575.75 1.13 601.56 2.84 626.90 7.56 C 645.40 11.06 663.85 16.26 680.33 25.58 C 694.45 33.49 706.89 44.64 715.48 58.43 C 725.74 74.83 730.83 93.89 733.64 112.88 C 736.19 131.47 737.09 150.32 735.88 169.05 C 734.30 190.77 728.51 212.77 715.63 230.63 C 705.32 245.20 690.38 255.88 674.31 263.28 C 657.45 271.22 639.25 275.69 621.06 279.41 C 637.12 283.09 653.22 287.51 667.79 295.38 C 683.00 303.61 695.44 317.16 701.50 333.44 C 707.63 349.86 711.63 366.98 715.54 384.03 C 728.13 441.05 741.00 498.00 753.71 554.99 C 731.18 555.02 708.65 554.99 686.12 555.00 C 675.82 507.69 665.48 460.40 655.16 413.10 C 650.77 393.35 645.53 373.58 636.49 355.39 C 630.61 343.41 621.96 332.61 610.67 325.33 C 596.87 316.22 580.28 312.84 564.12 310.85 C 552.15 309.47 540.09 308.88 528.04 308.98 C 490.57 308.93 453.11 308.96 415.65 308.96 C 415.64 390.31 415.65 471.66 415.64 553.00 C 415.55 554.29 415.83 555.50 416.45 556.63 C 433.27 589.85 458.56 618.72 489.30 639.73 C 502.57 649.15 517.40 655.97 532.17 662.65 C 549.99 670.58 568.26 677.51 586.87 683.37 C 624.95 694.82 663.23 706.44 699.07 723.91 C 735.48 741.54 768.46 766.40 794.71 797.24 C 797.90 801.30 802.11 804.89 803.58 810.02 C 806.54 818.62 800.59 828.75 791.85 830.87 C 785.42 832.78 778.16 830.07 774.15 824.80 C 747.77 792.20 713.42 766.15 674.97 749.41 C 667.36 762.33 667.55 778.26 670.69 792.51 C 675.58 814.09 686.91 833.56 699.62 851.44 C 703.14 856.59 703.35 863.71 700.16 869.08 C 696.18 876.24 686.57 879.54 679.10 876.07 C 674.20 874.17 671.39 869.54 668.57 865.42 C 657.37 849.09 647.73 831.51 641.62 812.61 C 633.60 788.19 632.29 760.35 643.81 736.79 C 608.61 723.95 572.30 714.37 537.27 701.04 C 543.19 724.14 543.67 748.67 538.16 771.90 C 536.65 778.53 530.67 783.76 523.93 784.48 C 517.50 785.31 510.80 782.02 507.57 776.40 C 505.20 772.60 504.79 767.88 505.73 763.57 C 510.00 742.16 510.01 719.13 501.16 698.83 C 497.18 690.17 492.01 681.51 484.15 675.88 C 455.18 659.09 430.03 636.08 410.03 609.28 C 409.98 676.12 410.04 742.96 410.00 809.80 C 424.63 815.29 438.15 823.27 451.25 831.71 C 471.79 845.11 491.31 860.05 510.13 875.77 C 515.16 879.79 517.65 886.84 515.86 893.08 C 514.22 899.86 507.89 905.15 500.92 905.55 C 496.45 905.93 491.94 904.35 488.59 901.40 C 464.23 880.59 437.90 862.06 410.00 846.29 C 409.99 883.54 410.01 920.79 409.99 958.04 C 410.12 963.73 407.47 969.49 402.69 972.70 C 396.73 976.97 387.94 976.54 382.40 971.73 C 378.70 968.62 376.45 963.86 376.47 959.03 C 376.44 911.12 376.52 863.21 376.43 815.30 C 346.90 836.69 319.61 861.17 295.10 888.17 C 291.14 892.14 288.10 897.48 282.58 899.48 C 275.07 902.56 265.76 899.14 261.93 892.01 C 258.42 885.85 259.41 877.53 264.34 872.41 C 286.88 847.27 310.99 823.43 337.36 802.31 C 349.67 792.60 362.49 783.38 376.43 776.14 C 376.55 707.70 376.52 639.25 376.45 570.80 C 361.11 599.54 339.19 624.83 312.28 643.27 C 305.50 648.07 298.23 652.11 291.04 656.24 C 278.19 674.44 278.10 698.84 285.60 719.18 C 287.58 726.07 293.02 732.45 291.17 740.00 C 289.67 748.57 280.61 754.89 272.05 753.21 C 267.08 752.41 262.54 749.26 260.16 744.81 C 249.10 723.87 245.04 699.45 248.20 676.01 C 231.69 682.91 214.85 689.06 198.57 696.52 C 184.36 702.91 170.39 709.83 156.70 717.27 C 171.52 757.31 172.75 802.18 160.10 842.95 C 158.85 848.47 155.46 853.75 150.07 855.98 C 143.09 859.32 134.07 856.77 129.68 850.45 C 126.62 846.21 125.63 840.50 127.36 835.53 C 137.76 803.23 137.90 767.74 127.71 735.36 C 90.47 761.63 57.48 793.90 30.35 830.52 C 25.19 837.75 14.04 839.35 7.03 833.90 C -0.26 828.78 -1.93 817.59 3.51 810.55 C 36.97 765.05 79.06 725.89 126.99 696.00 C 143.62 686.23 160.65 677.16 178.14 669.05 C 215.12 651.50 255.30 640.46 289.83 617.94 C 315.05 601.69 335.17 578.16 348.63 551.46 C 348.69 551.11 348.82 550.40 348.88 550.05 C 348.92 366.81 348.89 183.56 348.90 0.32 M 415.67 57.07 C 415.63 122.34 415.63 187.62 415.67 252.89 C 442.77 252.90 469.88 252.89 496.99 252.89 C 519.31 252.80 541.71 253.47 563.94 250.98 C 585.30 248.61 606.80 244.02 625.98 234.01 C 640.16 226.63 652.74 215.68 660.63 201.65 C 669.08 186.96 672.06 169.76 671.92 152.98 C 671.65 137.57 670.12 121.89 664.47 107.42 C 660.22 96.18 652.67 86.21 642.85 79.23 C 628.32 68.73 610.56 64.10 593.11 61.27 C 567.61 57.23 541.71 56.95 515.96 57.07 C 482.53 57.07 449.10 57.06 415.67 57.07 Z" />
</g>
</svg>
