<?xml version="1.0" encoding="UTF-8"?>
<svg id="Layer_2" data-name="Layer 2" xmlns="http://www.w3.org/2000/svg" viewBox="0 0 179.32 194.89">
  <defs>
    <style>
      .cls-1 {
        fill: #9aeba3;
      }
    </style>
  </defs>
  <g id="Layer_1-2" data-name="Layer 1">
    <path class="cls-1" d="M174.5,0H4.82C2.16,0,0,2.16,0,4.82v124.06c0,1.5.7,2.92,1.89,3.83l43.52,33.25.02-.02h0s94.78-66.31,94.78-66.31v-51.13h-24.1v24.1h-24.1v-24.1h-24.1v24.1h-24.1v-24.1h-19.72v-24.4h131.12v94.05l-89.54,63.3,16.3,12.45c1.65,1.26,3.93,1.32,5.65.15l89.6-61.35c1.31-.9,2.1-2.39,2.1-3.98V4.82c0-2.66-2.16-4.82-4.82-4.82Z"/>
  </g>
</svg>